<svg viewBox="0 0 2096 1390" xmlns="http://www.w3.org/2000/svg" role="img" aria-label="Full retention system diagram: traffic sources feed the website, which builds an email and SMS list; the list powers twelve automated flows and three monthly campaign types, all converging back through the website into first-time customers, an email funnel, repeating customers, and compounding revenue, LTV and AOV, with repeat customers looping back into the top of the funnel.">

<style>
  text{font-family:'Plus Jakarta Sans',ui-sans-serif,-apple-system,'Segoe UI',system-ui,sans-serif;}
  .node{fill:#ffffff;stroke:#dbe6ea;stroke-width:1.4;}
  .node-flat{fill:#ffffff;stroke:#dbe6ea;stroke-width:1.4;}
  .node-item{fill:#fafcfd;stroke:#dbe6ea;stroke-width:1.1;}
  .node-tint{fill:#eef8fa;stroke:#dbe6ea;stroke-width:1.4;}
  .node-strong{fill:#10171a;stroke:#10171a;stroke-width:1.4;}
  .node-accent{fill:#e3f6f9;stroke:#0891a8;stroke-width:1.8;}
  .node-accent-solid{fill:#0891a8;stroke:#0891a8;stroke-width:1.4;}
  .lbl{fill:#10171a;}
  .lbl-inv{fill:#ffffff;}
  .wire{stroke:#8c9ba1;stroke-width:1.6;color:#8c9ba1;}
  .wire-soft{stroke:#dbe6ea;stroke-width:1.4;color:#dbe6ea;}
  .wire-loop{stroke:#0891a8;stroke-width:2;color:#0891a8;}
  .arrowhead{fill:currentColor;}
</style>

<defs>
<marker id="arrow" viewBox="0 0 10 10" refX="8" refY="5" markerWidth="7" markerHeight="7" orient="auto-start-reverse">
<path d="M 0 0 L 10 5 L 0 10 z" fill="currentColor" class="arrowhead"/>
</marker>
</defs>
<rect x="718.0" y="30.0" width="160.0" height="46.0" rx="8" class="node node-flat"/><text text-anchor="middle" class="lbl" font-size="13" font-weight="600"><tspan x="798.0" y="57.0">Paid Ads</tspan></text><rect x="968.0" y="30.0" width="160.0" height="46.0" rx="8" class="node node-flat"/><text text-anchor="middle" class="lbl" font-size="13" font-weight="600"><tspan x="1048.0" y="57.0">SEO</tspan></text><rect x="1218.0" y="30.0" width="160.0" height="46.0" rx="8" class="node node-flat"/><text text-anchor="middle" class="lbl" font-size="13" font-weight="600"><tspan x="1298.0" y="57.0">Content</tspan></text><line x1="798.0" y1="76.0" x2="798.0" y2="96.0" class="wire"/><line x1="1298.0" y1="76.0" x2="1298.0" y2="96.0" class="wire"/><line x1="798.0" y1="96.0" x2="1298.0" y2="96.0" class="wire"/><line x1="1048.0" y1="76.0" x2="1048.0" y2="118.0" class="wire" marker-end="url(#arrow)"/><line x1="1048.0" y1="96.0" x2="1048.0" y2="118.0" class="wire" marker-end="url(#arrow)"/><rect x="963.0" y="118.0" width="170.0" height="46.0" rx="8" class="node node-strong"/><text text-anchor="middle" class="lbl lbl-inv" font-size="13" font-weight="600"><tspan x="1048.0" y="145.0">Your Website</tspan></text><line x1="1048.0" y1="164.0" x2="1048.0" y2="206.0" class="wire" marker-end="url(#arrow)"/><rect x="953.0" y="206.0" width="190.0" height="46.0" rx="8" class="node node-accent"/><text text-anchor="middle" class="lbl" font-size="13" font-weight="700"><tspan x="1048.0" y="233.0">Email &amp; SMS List</tspan></text><rect x="762.0" y="206.0" width="170.0" height="46.0" rx="8" class="node node-flat"/><text text-anchor="middle" class="lbl" font-size="12" font-weight="700"><tspan x="847.0" y="233.0">Email Flows</tspan></text><rect x="1767.0" y="206.0" width="170.0" height="46.0" rx="8" class="node node-flat"/><text text-anchor="middle" class="lbl" font-size="12" font-weight="700"><tspan x="1852.0" y="226.8">Monthly</tspan><tspan x="1852.0" y="239.2">Campaigns</tspan></text><line x1="953.0" y1="229.0" x2="932.0" y2="229.0" class="wire-soft" marker-end="url(#arrow)" stroke-dasharray="6,5"/><line x1="1143.0" y1="229.0" x2="1767.0" y2="229.0" class="wire-soft" marker-end="url(#arrow)" stroke-dasharray="6,5"/><line x1="847.0" y1="252.0" x2="847.0" y2="272.0" class="wire"/><line x1="110.0" y1="272.0" x2="1584.0" y2="272.0" class="wire"/><line x1="1852.0" y1="252.0" x2="1852.0" y2="272.0" class="wire"/><line x1="1718.0" y1="272.0" x2="1986.0" y2="272.0" class="wire"/><line x1="110.0" y1="272.0" x2="110.0" y2="300.0" class="wire" marker-end="url(#arrow)"/><rect x="50.0" y="300.0" width="120.0" height="56.0" rx="8" class="node node-flat"/><text text-anchor="middle" class="lbl" font-size="10.5" font-weight="600"><tspan x="110.0" y="332.0">Welcome Flow</tspan></text><line x1="244.0" y1="272.0" x2="244.0" y2="300.0" class="wire" marker-end="url(#arrow)"/><rect x="184.0" y="300.0" width="120.0" height="56.0" rx="8" class="node node-flat"/><text text-anchor="middle" class="lbl" font-size="10.5" font-weight="600"><tspan x="244.0" y="325.8">Abandoned</tspan><tspan x="244.0" y="338.2">Checkout</tspan></text><line x1="378.0" y1="272.0" x2="378.0" y2="300.0" class="wire" marker-end="url(#arrow)"/><rect x="318.0" y="300.0" width="120.0" height="56.0" rx="8" class="node node-flat"/><text text-anchor="middle" class="lbl" font-size="10.5" font-weight="600"><tspan x="378.0" y="332.0">Abandoned Cart</tspan></text><line x1="512.0" y1="272.0" x2="512.0" y2="300.0" class="wire" marker-end="url(#arrow)"/><rect x="452.0" y="300.0" width="120.0" height="56.0" rx="8" class="node node-flat"/><text text-anchor="middle" class="lbl" font-size="10.5" font-weight="600"><tspan x="512.0" y="332.0">Browse Abandoned</tspan></text><line x1="646.0" y1="272.0" x2="646.0" y2="300.0" class="wire" marker-end="url(#arrow)"/><rect x="586.0" y="300.0" width="120.0" height="56.0" rx="8" class="node node-flat"/><text text-anchor="middle" class="lbl" font-size="10.5" font-weight="600"><tspan x="646.0" y="332.0">Site Abandoned</tspan></text><line x1="780.0" y1="272.0" x2="780.0" y2="300.0" class="wire" marker-end="url(#arrow)"/><rect x="720.0" y="300.0" width="120.0" height="56.0" rx="8" class="node node-flat"/><text text-anchor="middle" class="lbl" font-size="10.5" font-weight="600"><tspan x="780.0" y="325.8">Abandoned Email</tspan><tspan x="780.0" y="338.2">Click</tspan></text><line x1="914.0" y1="272.0" x2="914.0" y2="300.0" class="wire" marker-end="url(#arrow)"/><rect x="854.0" y="300.0" width="120.0" height="56.0" rx="8" class="node node-flat"/><text text-anchor="middle" class="lbl" font-size="10.5" font-weight="600"><tspan x="914.0" y="332.0">Post-Purchase</tspan></text><line x1="1048.0" y1="272.0" x2="1048.0" y2="300.0" class="wire" marker-end="url(#arrow)"/><rect x="988.0" y="300.0" width="120.0" height="56.0" rx="8" class="node node-flat"/><text text-anchor="middle" class="lbl" font-size="10.5" font-weight="600"><tspan x="1048.0" y="325.8">Upsell &amp;</tspan><tspan x="1048.0" y="338.2">Bounce-Back</tspan></text><line x1="1182.0" y1="272.0" x2="1182.0" y2="300.0" class="wire" marker-end="url(#arrow)"/><rect x="1122.0" y="300.0" width="120.0" height="56.0" rx="8" class="node node-flat"/><text text-anchor="middle" class="lbl" font-size="10.5" font-weight="600"><tspan x="1182.0" y="325.8">Replenish</tspan><tspan x="1182.0" y="338.2">Reminder</tspan></text><line x1="1316.0" y1="272.0" x2="1316.0" y2="300.0" class="wire" marker-end="url(#arrow)"/><rect x="1256.0" y="300.0" width="120.0" height="56.0" rx="8" class="node node-flat"/><text text-anchor="middle" class="lbl" font-size="10.5" font-weight="600"><tspan x="1316.0" y="332.0">Customer Winback</tspan></text><line x1="1450.0" y1="272.0" x2="1450.0" y2="300.0" class="wire" marker-end="url(#arrow)"/><rect x="1390.0" y="300.0" width="120.0" height="56.0" rx="8" class="node node-flat"/><text text-anchor="middle" class="lbl" font-size="10.5" font-weight="600"><tspan x="1450.0" y="332.0">VIP Customer</tspan></text><line x1="1584.0" y1="272.0" x2="1584.0" y2="300.0" class="wire" marker-end="url(#arrow)"/><rect x="1524.0" y="300.0" width="120.0" height="56.0" rx="8" class="node node-flat"/><text text-anchor="middle" class="lbl" font-size="10.5" font-weight="600"><tspan x="1584.0" y="332.0">Sunset Flow</tspan></text><line x1="1718.0" y1="272.0" x2="1718.0" y2="300.0" class="wire" marker-end="url(#arrow)"/><rect x="1658.0" y="300.0" width="120.0" height="56.0" rx="8" class="node node-tint"/><text text-anchor="middle" class="lbl" font-size="10.5" font-weight="600"><tspan x="1718.0" y="332.0">Nurture</tspan></text><line x1="1852.0" y1="272.0" x2="1852.0" y2="300.0" class="wire" marker-end="url(#arrow)"/><rect x="1792.0" y="300.0" width="120.0" height="56.0" rx="8" class="node node-tint"/><text text-anchor="middle" class="lbl" font-size="10.5" font-weight="600"><tspan x="1852.0" y="332.0">Sales</tspan></text><line x1="1986.0" y1="272.0" x2="1986.0" y2="300.0" class="wire" marker-end="url(#arrow)"/><rect x="1926.0" y="300.0" width="120.0" height="56.0" rx="8" class="node node-tint"/><text text-anchor="middle" class="lbl" font-size="10.5" font-weight="600"><tspan x="1986.0" y="332.0">Value</tspan></text><line x1="110.0" y1="356.0" x2="110.0" y2="388.0" class="wire" marker-end="url(#arrow)"/><rect x="60.0" y="388.0" width="100.0" height="32.0" rx="6" class="node node-item"/><text text-anchor="middle" class="lbl" font-size="9.5" font-weight="600"><tspan x="110.0" y="408.0">Email #1</tspan></text><rect x="60.0" y="432.0" width="100.0" height="32.0" rx="6" class="node node-item"/><text text-anchor="middle" class="lbl" font-size="9.5" font-weight="600"><tspan x="110.0" y="452.0">Email #2</tspan></text><line x1="110.0" y1="420.0" x2="110.0" y2="432.0" class="wire" marker-end="url(#arrow)"/><rect x="60.0" y="476.0" width="100.0" height="32.0" rx="6" class="node node-item"/><text text-anchor="middle" class="lbl" font-size="9.5" font-weight="600"><tspan x="110.0" y="496.0">Email #3</tspan></text><line x1="110.0" y1="464.0" x2="110.0" y2="476.0" class="wire" marker-end="url(#arrow)"/><rect x="60.0" y="520.0" width="100.0" height="32.0" rx="6" class="node node-item"/><text text-anchor="middle" class="lbl" font-size="9.5" font-weight="600"><tspan x="110.0" y="540.0">Email #4</tspan></text><line x1="110.0" y1="508.0" x2="110.0" y2="520.0" class="wire" marker-end="url(#arrow)"/><rect x="60.0" y="564.0" width="100.0" height="32.0" rx="6" class="node node-item"/><text text-anchor="middle" class="lbl" font-size="9.5" font-weight="600"><tspan x="110.0" y="584.0">Email #5</tspan></text><line x1="110.0" y1="552.0" x2="110.0" y2="564.0" class="wire" marker-end="url(#arrow)"/><rect x="60.0" y="608.0" width="100.0" height="32.0" rx="6" class="node node-item"/><text text-anchor="middle" class="lbl" font-size="9.5" font-weight="600"><tspan x="110.0" y="628.0">Email #6</tspan></text><line x1="110.0" y1="596.0" x2="110.0" y2="608.0" class="wire" marker-end="url(#arrow)"/><rect x="60.0" y="652.0" width="100.0" height="32.0" rx="6" class="node node-item"/><text text-anchor="middle" class="lbl" font-size="9.5" font-weight="600"><tspan x="110.0" y="672.0">Email #7</tspan></text><line x1="110.0" y1="640.0" x2="110.0" y2="652.0" class="wire" marker-end="url(#arrow)"/><rect x="60.0" y="696.0" width="100.0" height="32.0" rx="6" class="node node-item"/><text text-anchor="middle" class="lbl" font-size="9.5" font-weight="600"><tspan x="110.0" y="716.0">Email #8</tspan></text><line x1="110.0" y1="684.0" x2="110.0" y2="696.0" class="wire" marker-end="url(#arrow)"/><line x1="244.0" y1="356.0" x2="244.0" y2="388.0" class="wire" marker-end="url(#arrow)"/><rect x="194.0" y="388.0" width="100.0" height="32.0" rx="6" class="node node-item"/><text text-anchor="middle" class="lbl" font-size="9.5" font-weight="600"><tspan x="244.0" y="408.0">Email #1</tspan></text><rect x="194.0" y="432.0" width="100.0" height="32.0" rx="6" class="node node-item"/><text text-anchor="middle" class="lbl" font-size="9.5" font-weight="600"><tspan x="244.0" y="452.0">Email #2</tspan></text><line x1="244.0" y1="420.0" x2="244.0" y2="432.0" class="wire" marker-end="url(#arrow)"/><rect x="194.0" y="476.0" width="100.0" height="32.0" rx="6" class="node node-item"/><text text-anchor="middle" class="lbl" font-size="9.5" font-weight="600"><tspan x="244.0" y="496.0">Email #3</tspan></text><line x1="244.0" y1="464.0" x2="244.0" y2="476.0" class="wire" marker-end="url(#arrow)"/><rect x="194.0" y="520.0" width="100.0" height="32.0" rx="6" class="node node-item"/><text text-anchor="middle" class="lbl" font-size="9.5" font-weight="600"><tspan x="244.0" y="540.0">Email #4</tspan></text><line x1="244.0" y1="508.0" x2="244.0" y2="520.0" class="wire" marker-end="url(#arrow)"/><line x1="378.0" y1="356.0" x2="378.0" y2="388.0" class="wire" marker-end="url(#arrow)"/><rect x="328.0" y="388.0" width="100.0" height="32.0" rx="6" class="node node-item"/><text text-anchor="middle" class="lbl" font-size="9.5" font-weight="600"><tspan x="378.0" y="408.0">Email #1</tspan></text><rect x="328.0" y="432.0" width="100.0" height="32.0" rx="6" class="node node-item"/><text text-anchor="middle" class="lbl" font-size="9.5" font-weight="600"><tspan x="378.0" y="452.0">Email #2</tspan></text><line x1="378.0" y1="420.0" x2="378.0" y2="432.0" class="wire" marker-end="url(#arrow)"/><rect x="328.0" y="476.0" width="100.0" height="32.0" rx="6" class="node node-item"/><text text-anchor="middle" class="lbl" font-size="9.5" font-weight="600"><tspan x="378.0" y="496.0">Email #3</tspan></text><line x1="378.0" y1="464.0" x2="378.0" y2="476.0" class="wire" marker-end="url(#arrow)"/><rect x="328.0" y="520.0" width="100.0" height="32.0" rx="6" class="node node-item"/><text text-anchor="middle" class="lbl" font-size="9.5" font-weight="600"><tspan x="378.0" y="540.0">Email #4</tspan></text><line x1="378.0" y1="508.0" x2="378.0" y2="520.0" class="wire" marker-end="url(#arrow)"/><line x1="512.0" y1="356.0" x2="512.0" y2="388.0" class="wire" marker-end="url(#arrow)"/><rect x="462.0" y="388.0" width="100.0" height="32.0" rx="6" class="node node-item"/><text text-anchor="middle" class="lbl" font-size="9.5" font-weight="600"><tspan x="512.0" y="408.0">Email #1</tspan></text><rect x="462.0" y="432.0" width="100.0" height="32.0" rx="6" class="node node-item"/><text text-anchor="middle" class="lbl" font-size="9.5" font-weight="600"><tspan x="512.0" y="452.0">Email #2</tspan></text><line x1="512.0" y1="420.0" x2="512.0" y2="432.0" class="wire" marker-end="url(#arrow)"/><rect x="462.0" y="476.0" width="100.0" height="32.0" rx="6" class="node node-item"/><text text-anchor="middle" class="lbl" font-size="9.5" font-weight="600"><tspan x="512.0" y="496.0">Email #3</tspan></text><line x1="512.0" y1="464.0" x2="512.0" y2="476.0" class="wire" marker-end="url(#arrow)"/><rect x="462.0" y="520.0" width="100.0" height="32.0" rx="6" class="node node-item"/><text text-anchor="middle" class="lbl" font-size="9.5" font-weight="600"><tspan x="512.0" y="540.0">Email #4</tspan></text><line x1="512.0" y1="508.0" x2="512.0" y2="520.0" class="wire" marker-end="url(#arrow)"/><line x1="646.0" y1="356.0" x2="646.0" y2="388.0" class="wire" marker-end="url(#arrow)"/><rect x="596.0" y="388.0" width="100.0" height="32.0" rx="6" class="node node-item"/><text text-anchor="middle" class="lbl" font-size="9.5" font-weight="600"><tspan x="646.0" y="408.0">Email #1</tspan></text><rect x="596.0" y="432.0" width="100.0" height="32.0" rx="6" class="node node-item"/><text text-anchor="middle" class="lbl" font-size="9.5" font-weight="600"><tspan x="646.0" y="452.0">Email #2</tspan></text><line x1="646.0" y1="420.0" x2="646.0" y2="432.0" class="wire" marker-end="url(#arrow)"/><line x1="780.0" y1="356.0" x2="780.0" y2="388.0" class="wire" marker-end="url(#arrow)"/><rect x="730.0" y="388.0" width="100.0" height="32.0" rx="6" class="node node-item"/><text text-anchor="middle" class="lbl" font-size="9.5" font-weight="600"><tspan x="780.0" y="408.0">Email #1</tspan></text><rect x="730.0" y="432.0" width="100.0" height="32.0" rx="6" class="node node-item"/><text text-anchor="middle" class="lbl" font-size="9.5" font-weight="600"><tspan x="780.0" y="452.0">Email #2</tspan></text><line x1="780.0" y1="420.0" x2="780.0" y2="432.0" class="wire" marker-end="url(#arrow)"/><line x1="914.0" y1="356.0" x2="914.0" y2="388.0" class="wire" marker-end="url(#arrow)"/><rect x="864.0" y="388.0" width="100.0" height="32.0" rx="6" class="node node-item"/><text text-anchor="middle" class="lbl" font-size="9.5" font-weight="600"><tspan x="914.0" y="408.0">Email #1</tspan></text><rect x="864.0" y="432.0" width="100.0" height="32.0" rx="6" class="node node-item"/><text text-anchor="middle" class="lbl" font-size="9.5" font-weight="600"><tspan x="914.0" y="452.0">Email #2</tspan></text><line x1="914.0" y1="420.0" x2="914.0" y2="432.0" class="wire" marker-end="url(#arrow)"/><rect x="864.0" y="476.0" width="100.0" height="32.0" rx="6" class="node node-item"/><text text-anchor="middle" class="lbl" font-size="9.5" font-weight="600"><tspan x="914.0" y="496.0">Email #3</tspan></text><line x1="914.0" y1="464.0" x2="914.0" y2="476.0" class="wire" marker-end="url(#arrow)"/><rect x="864.0" y="520.0" width="100.0" height="32.0" rx="6" class="node node-item"/><text text-anchor="middle" class="lbl" font-size="9.5" font-weight="600"><tspan x="914.0" y="540.0">Email #4</tspan></text><line x1="914.0" y1="508.0" x2="914.0" y2="520.0" class="wire" marker-end="url(#arrow)"/><rect x="864.0" y="564.0" width="100.0" height="32.0" rx="6" class="node node-item"/><text text-anchor="middle" class="lbl" font-size="9.5" font-weight="600"><tspan x="914.0" y="584.0">Email #5</tspan></text><line x1="914.0" y1="552.0" x2="914.0" y2="564.0" class="wire" marker-end="url(#arrow)"/><rect x="864.0" y="608.0" width="100.0" height="32.0" rx="6" class="node node-item"/><text text-anchor="middle" class="lbl" font-size="9.5" font-weight="600"><tspan x="914.0" y="628.0">Email #6</tspan></text><line x1="914.0" y1="596.0" x2="914.0" y2="608.0" class="wire" marker-end="url(#arrow)"/><rect x="864.0" y="652.0" width="100.0" height="32.0" rx="6" class="node node-item"/><text text-anchor="middle" class="lbl" font-size="9.5" font-weight="600"><tspan x="914.0" y="672.0">Email #7</tspan></text><line x1="914.0" y1="640.0" x2="914.0" y2="652.0" class="wire" marker-end="url(#arrow)"/><line x1="1048.0" y1="356.0" x2="1048.0" y2="388.0" class="wire" marker-end="url(#arrow)"/><rect x="998.0" y="388.0" width="100.0" height="32.0" rx="6" class="node node-item"/><text text-anchor="middle" class="lbl" font-size="9.5" font-weight="600"><tspan x="1048.0" y="408.0">Email #1</tspan></text><rect x="998.0" y="432.0" width="100.0" height="32.0" rx="6" class="node node-item"/><text text-anchor="middle" class="lbl" font-size="9.5" font-weight="600"><tspan x="1048.0" y="452.0">Email #2</tspan></text><line x1="1048.0" y1="420.0" x2="1048.0" y2="432.0" class="wire" marker-end="url(#arrow)"/><rect x="998.0" y="476.0" width="100.0" height="32.0" rx="6" class="node node-item"/><text text-anchor="middle" class="lbl" font-size="9.5" font-weight="600"><tspan x="1048.0" y="496.0">Email #3</tspan></text><line x1="1048.0" y1="464.0" x2="1048.0" y2="476.0" class="wire" marker-end="url(#arrow)"/><line x1="1182.0" y1="356.0" x2="1182.0" y2="388.0" class="wire" marker-end="url(#arrow)"/><rect x="1132.0" y="388.0" width="100.0" height="32.0" rx="6" class="node node-item"/><text text-anchor="middle" class="lbl" font-size="9.5" font-weight="600"><tspan x="1182.0" y="408.0">Email #1</tspan></text><rect x="1132.0" y="432.0" width="100.0" height="32.0" rx="6" class="node node-item"/><text text-anchor="middle" class="lbl" font-size="9.5" font-weight="600"><tspan x="1182.0" y="452.0">Email #2</tspan></text><line x1="1182.0" y1="420.0" x2="1182.0" y2="432.0" class="wire" marker-end="url(#arrow)"/><rect x="1132.0" y="476.0" width="100.0" height="32.0" rx="6" class="node node-item"/><text text-anchor="middle" class="lbl" font-size="9.5" font-weight="600"><tspan x="1182.0" y="496.0">Email #3</tspan></text><line x1="1182.0" y1="464.0" x2="1182.0" y2="476.0" class="wire" marker-end="url(#arrow)"/><line x1="1316.0" y1="356.0" x2="1316.0" y2="388.0" class="wire" marker-end="url(#arrow)"/><rect x="1266.0" y="388.0" width="100.0" height="32.0" rx="6" class="node node-item"/><text text-anchor="middle" class="lbl" font-size="9.5" font-weight="600"><tspan x="1316.0" y="408.0">Email #1</tspan></text><rect x="1266.0" y="432.0" width="100.0" height="32.0" rx="6" class="node node-item"/><text text-anchor="middle" class="lbl" font-size="9.5" font-weight="600"><tspan x="1316.0" y="452.0">Email #2</tspan></text><line x1="1316.0" y1="420.0" x2="1316.0" y2="432.0" class="wire" marker-end="url(#arrow)"/><rect x="1266.0" y="476.0" width="100.0" height="32.0" rx="6" class="node node-item"/><text text-anchor="middle" class="lbl" font-size="9.5" font-weight="600"><tspan x="1316.0" y="496.0">Email #3</tspan></text><line x1="1316.0" y1="464.0" x2="1316.0" y2="476.0" class="wire" marker-end="url(#arrow)"/><line x1="1450.0" y1="356.0" x2="1450.0" y2="388.0" class="wire" marker-end="url(#arrow)"/><rect x="1400.0" y="388.0" width="100.0" height="32.0" rx="6" class="node node-item"/><text text-anchor="middle" class="lbl" font-size="9.5" font-weight="600"><tspan x="1450.0" y="408.0">Email #1</tspan></text><rect x="1400.0" y="432.0" width="100.0" height="32.0" rx="6" class="node node-item"/><text text-anchor="middle" class="lbl" font-size="9.5" font-weight="600"><tspan x="1450.0" y="452.0">Email #2</tspan></text><line x1="1450.0" y1="420.0" x2="1450.0" y2="432.0" class="wire" marker-end="url(#arrow)"/><rect x="1400.0" y="476.0" width="100.0" height="32.0" rx="6" class="node node-item"/><text text-anchor="middle" class="lbl" font-size="9.5" font-weight="600"><tspan x="1450.0" y="496.0">Email #3</tspan></text><line x1="1450.0" y1="464.0" x2="1450.0" y2="476.0" class="wire" marker-end="url(#arrow)"/><line x1="1584.0" y1="356.0" x2="1584.0" y2="388.0" class="wire" marker-end="url(#arrow)"/><rect x="1534.0" y="388.0" width="100.0" height="32.0" rx="6" class="node node-item"/><text text-anchor="middle" class="lbl" font-size="9.5" font-weight="600"><tspan x="1584.0" y="408.0">Email #1</tspan></text><rect x="1534.0" y="432.0" width="100.0" height="32.0" rx="6" class="node node-item"/><text text-anchor="middle" class="lbl" font-size="9.5" font-weight="600"><tspan x="1584.0" y="452.0">Email #2</tspan></text><line x1="1584.0" y1="420.0" x2="1584.0" y2="432.0" class="wire" marker-end="url(#arrow)"/><rect x="1534.0" y="476.0" width="100.0" height="32.0" rx="6" class="node node-item"/><text text-anchor="middle" class="lbl" font-size="9.5" font-weight="600"><tspan x="1584.0" y="496.0">Email #3</tspan></text><line x1="1584.0" y1="464.0" x2="1584.0" y2="476.0" class="wire" marker-end="url(#arrow)"/><line x1="1718.0" y1="356.0" x2="1718.0" y2="388.0" class="wire" marker-end="url(#arrow)"/><rect x="1668.0" y="388.0" width="100.0" height="32.0" rx="6" class="node node-item"/><text text-anchor="middle" class="lbl" font-size="9.5" font-weight="600"><tspan x="1718.0" y="408.0">Campaign #1</tspan></text><rect x="1668.0" y="432.0" width="100.0" height="32.0" rx="6" class="node node-item"/><text text-anchor="middle" class="lbl" font-size="9.5" font-weight="600"><tspan x="1718.0" y="452.0">Campaign #2</tspan></text><line x1="1718.0" y1="420.0" x2="1718.0" y2="432.0" class="wire" marker-end="url(#arrow)"/><rect x="1668.0" y="476.0" width="100.0" height="32.0" rx="6" class="node node-item"/><text text-anchor="middle" class="lbl" font-size="9.5" font-weight="600"><tspan x="1718.0" y="496.0">Campaign #3</tspan></text><line x1="1718.0" y1="464.0" x2="1718.0" y2="476.0" class="wire" marker-end="url(#arrow)"/><rect x="1668.0" y="520.0" width="100.0" height="32.0" rx="6" class="node node-item"/><text text-anchor="middle" class="lbl" font-size="9.5" font-weight="600"><tspan x="1718.0" y="540.0">Campaign #4</tspan></text><line x1="1718.0" y1="508.0" x2="1718.0" y2="520.0" class="wire" marker-end="url(#arrow)"/><line x1="1852.0" y1="356.0" x2="1852.0" y2="388.0" class="wire" marker-end="url(#arrow)"/><rect x="1802.0" y="388.0" width="100.0" height="32.0" rx="6" class="node node-item"/><text text-anchor="middle" class="lbl" font-size="9.5" font-weight="600"><tspan x="1852.0" y="408.0">Campaign #1</tspan></text><rect x="1802.0" y="432.0" width="100.0" height="32.0" rx="6" class="node node-item"/><text text-anchor="middle" class="lbl" font-size="9.5" font-weight="600"><tspan x="1852.0" y="452.0">Campaign #2</tspan></text><line x1="1852.0" y1="420.0" x2="1852.0" y2="432.0" class="wire" marker-end="url(#arrow)"/><rect x="1802.0" y="476.0" width="100.0" height="32.0" rx="6" class="node node-item"/><text text-anchor="middle" class="lbl" font-size="9.5" font-weight="600"><tspan x="1852.0" y="496.0">Campaign #3</tspan></text><line x1="1852.0" y1="464.0" x2="1852.0" y2="476.0" class="wire" marker-end="url(#arrow)"/><rect x="1802.0" y="520.0" width="100.0" height="32.0" rx="6" class="node node-item"/><text text-anchor="middle" class="lbl" font-size="9.5" font-weight="600"><tspan x="1852.0" y="540.0">Campaign #4</tspan></text><line x1="1852.0" y1="508.0" x2="1852.0" y2="520.0" class="wire" marker-end="url(#arrow)"/><line x1="1986.0" y1="356.0" x2="1986.0" y2="388.0" class="wire" marker-end="url(#arrow)"/><rect x="1936.0" y="388.0" width="100.0" height="32.0" rx="6" class="node node-item"/><text text-anchor="middle" class="lbl" font-size="9.5" font-weight="600"><tspan x="1986.0" y="408.0">Campaign #1</tspan></text><rect x="1936.0" y="432.0" width="100.0" height="32.0" rx="6" class="node node-item"/><text text-anchor="middle" class="lbl" font-size="9.5" font-weight="600"><tspan x="1986.0" y="452.0">Campaign #2</tspan></text><line x1="1986.0" y1="420.0" x2="1986.0" y2="432.0" class="wire" marker-end="url(#arrow)"/><rect x="1936.0" y="476.0" width="100.0" height="32.0" rx="6" class="node node-item"/><text text-anchor="middle" class="lbl" font-size="9.5" font-weight="600"><tspan x="1986.0" y="496.0">Campaign #3</tspan></text><line x1="1986.0" y1="464.0" x2="1986.0" y2="476.0" class="wire" marker-end="url(#arrow)"/><rect x="1936.0" y="520.0" width="100.0" height="32.0" rx="6" class="node node-item"/><text text-anchor="middle" class="lbl" font-size="9.5" font-weight="600"><tspan x="1986.0" y="540.0">Campaign #4</tspan></text><line x1="1986.0" y1="508.0" x2="1986.0" y2="520.0" class="wire" marker-end="url(#arrow)"/><line x1="110.0" y1="728.0" x2="110.0" y2="762.0" class="wire-soft"/><line x1="244.0" y1="552.0" x2="244.0" y2="762.0" class="wire-soft"/><line x1="378.0" y1="552.0" x2="378.0" y2="762.0" class="wire-soft"/><line x1="512.0" y1="552.0" x2="512.0" y2="762.0" class="wire-soft"/><line x1="646.0" y1="464.0" x2="646.0" y2="762.0" class="wire-soft"/><line x1="780.0" y1="464.0" x2="780.0" y2="762.0" class="wire-soft"/><line x1="914.0" y1="684.0" x2="914.0" y2="762.0" class="wire-soft"/><line x1="1048.0" y1="508.0" x2="1048.0" y2="762.0" class="wire-soft"/><line x1="1182.0" y1="508.0" x2="1182.0" y2="762.0" class="wire-soft"/><line x1="1316.0" y1="508.0" x2="1316.0" y2="762.0" class="wire-soft"/><line x1="1450.0" y1="508.0" x2="1450.0" y2="762.0" class="wire-soft"/><line x1="1584.0" y1="508.0" x2="1584.0" y2="762.0" class="wire-soft"/><line x1="1718.0" y1="552.0" x2="1718.0" y2="762.0" class="wire-soft"/><line x1="1852.0" y1="552.0" x2="1852.0" y2="762.0" class="wire-soft"/><line x1="1986.0" y1="552.0" x2="1986.0" y2="762.0" class="wire-soft"/><line x1="110.0" y1="762.0" x2="1986.0" y2="762.0" class="wire-soft"/><line x1="1048.0" y1="762.0" x2="1048.0" y2="808.0" class="wire" marker-end="url(#arrow)"/><rect x="963.0" y="808.0" width="170.0" height="46.0" rx="8" class="node node-strong"/><text text-anchor="middle" class="lbl lbl-inv" font-size="13" font-weight="600"><tspan x="1048.0" y="835.0">Your Website</tspan></text><line x1="1048.0" y1="854.0" x2="1048.0" y2="881.0" class="wire" marker-end="url(#arrow)"/><polygon points="1048.0,881.0 1148.0,926 1048.0,971.0 948.0,926" class="node node-flat"/><text text-anchor="middle" class="lbl" font-size="12" font-weight="700"><tspan x="1048.0" y="923.8">First-Time</tspan><tspan x="1048.0" y="936.2">Customer</tspan></text><line x1="1048.0" y1="971.0" x2="1048.0" y2="1019.0" class="wire-soft" marker-end="url(#arrow)"/><polygon points="953.0,1019.0 1143.0,1019.0 1083.0,1089.0 1013.0,1089.0" class="node node-flat"/><text text-anchor="middle" class="lbl" font-size="12" font-weight="700"><tspan x="1048.0" y="1058.0">Email Funnel</tspan></text><line x1="1048.0" y1="1089.0" x2="1048.0" y2="1114.0" class="wire-soft" marker-end="url(#arrow)"/><polygon points="1048.0,1114.0 1065.6,1157.7 1112.7,1161.0 1076.5,1191.3 1088.0,1237.0 1048.0,1212.0 1008.0,1237.0 1019.5,1191.3 983.3,1161.0 1030.4,1157.7" class="node node-flat"/><text text-anchor="middle" class="lbl" font-size="11.5" font-weight="700"><tspan x="1048.0" y="1183.8">Repeating</tspan><tspan x="1048.0" y="1196.2">Customer</tspan></text><line x1="1048.0" y1="1237.0" x2="1048.0" y2="1270.0" class="wire-soft" marker-end="url(#arrow)"/><ellipse cx="1048.0" cy="1310" rx="150" ry="40" class="node node-accent-solid"/><text text-anchor="middle" class="lbl lbl-inv" font-size="13" font-weight="700"><tspan x="1048.0" y="1306.5">Revenue, LTV,</tspan><tspan x="1048.0" y="1321.5">AOV</tspan></text><path d="M 1153.0 1054 L 2076 1054 L 2076 141.0 L 1143.0 141.0" fill="none" class="wire-loop" marker-end="url(#arrow)" stroke-dasharray="6,5"/>
</svg>
